# xmcd
#
# Track frame offsets: 
#        150
#        16392
#        38973
#        57303
#        77998
#        97968
#        116186
#        133629
#        153469
#        169399
#        189080
#        209130
#        229365
#        248830
#        268275
#
# Disc length: 3832 seconds
#
# Revision: 0
# Processed by: cddbd v1.5.2PL0 Copyright (c) Steve Scherf et al.
# Submitted via: ExactAudioCopyFreeDBPlugin 1.0
#
DISCID=dc0ef60f
DTITLE=群星 - DTS51正版试音碟
DYEAR=2010
DGENRE=DTS
TTITLE0=梦之旅 - 同桌的你
TTITLE1=梦之旅 - 朋友
TTITLE2=梦之旅 - 送别
TTITLE3=梦之旅 - 弯弯的月亮
TTITLE4=梦之旅 - 常回家看看
TTITLE5=梦之旅 - 南泥湾
TTITLE6=梦之旅 - 情深谊长
TTITLE7=梦之旅 - 为了谁
TTITLE8=梦之旅 - 晚霞中的红蜻蜓
TTITLE9=梦之旅 - 永远是朋友
TTITLE10=梦之旅 - 美丽的草原我的家
TTITLE11=梦之旅 - 草原之夜
TTITLE12=梦之旅 - 荷花颂
TTITLE13=梦之旅 - 九九艳阳天
TTITLE14=梦之旅 - 同一首歌
EXTD=
EXTT0=
EXTT1=
EXTT2=
EXTT3=
EXTT4=
EXTT5=
EXTT6=
EXTT7=
EXTT8=
EXTT9=
EXTT10=
EXTT11=
EXTT12=
EXTT13=
EXTT14=
PLAYORDER=
